<?xml version="1.0" standalone="no"?>
<!DOCTYPE svg PUBLIC "-//W3C//DTD SVG 20010904//EN"
 "http://www.w3.org/TR/2001/REC-SVG-20010904/DTD/svg10.dtd">
<svg version="1.0" xmlns="http://www.w3.org/2000/svg"
 width="133.000000pt" height="133.000000pt" viewBox="0 0 133.000000 133.000000"
 preserveAspectRatio="xMidYMid meet">

<g transform="translate(0.000000,133.000000) scale(0.100000,-0.100000)"
fill="#000000" stroke="none">
<path d="M327 1003 c-16 -18 -8 -27 143 -178 l160 -160 -160 -160 c-154 -154
-160 -162 -143 -178 18 -16 27 -8 178 143 l160 160 160 -160 c154 -154 162
-160 178 -143 16 18 8 27 -143 178 l-160 160 160 160 c154 154 160 162 143
178 -18 16 -27 8 -178 -143 l-160 -160 -160 160 c-154 154 -162 160 -178 143z"/>
</g>
</svg>
